<?xml version="1.0" encoding="UTF-8"?>
<svg id="Layer_2" data-name="Layer 2" xmlns="http://www.w3.org/2000/svg" viewBox="0 0 115.28 191.24">
  <defs>
    <style>
      .cls-1 {
        fill: #2c67ff;
        stroke: #fff;
        stroke-miterlimit: 10;
        stroke-width: .77px;
      }
    </style>
  </defs>
  <g id="Warstwa_1" data-name="Warstwa 1">
    <g>
      <polygon class="cls-1" points="57.62 95.61 57.65 95.64 57.63 95.67 57.59 95.63 57.62 95.61"/>
      <path class="cls-1" d="M114.1,90.72c-.03-.15-.06-.3-.09-.45.03.15.06.3.09.45Z"/>
      <path class="cls-1" d="M57.65,95.64l15.05,16.16c9.07,9.74,24.45,10.29,34.19,1.22,6.01-5.6,8.51-13.6,7.42-21.2,1.2,7.17-.78,14.81-6.09,20.52l-17.53,18.83-33.05-35.5.02-.03Z"/>
      <path class="cls-1" d="M24.58,131.17l33.05,35.5-15.38,16.52c-9.07,9.74-24.45,10.29-34.19,1.22h0c-9.74-9.07-10.29-24.45-1.22-34.19l17.73-19.05Z"/>
      <path class="cls-1" d="M42.47,111.87l15.12-16.24.03.04-33.05,35.5-17.42-18.7c-3.53-3.8-5.59-8.45-6.22-13.26.82,5.15,3.26,10.07,7.35,13.88,9.74,9.07,25.12,8.52,34.19-1.22Z"/>
      <polygon class="cls-1" points="57.63 95.67 90.68 131.17 57.63 166.66 24.58 131.17 57.63 95.67"/>
      <path class="cls-1" d="M73.03,8.06c9.07-9.74,24.45-10.29,34.19-1.22h0c9.74,9.07,10.29,24.45,1.22,34.19l-17.76,19.08L57.62,24.61l15.41-16.55Z"/>
      <path class="cls-1" d="M57.59,95.63l-15.03-16.14c-9.07-9.74-24.45-10.29-34.19-1.22h0C2.44,83.81-.06,91.69.93,99.21c-1.13-7.11.87-14.66,6.13-20.31l17.5-18.79,33.05,35.5-.02.03Z"/>
      <path class="cls-1" d="M8.38,78.28h0c9.74-9.07,25.12-8.52,34.19,1.22l15.03,16.14-15.12,16.24c-9.07,9.74-24.45,10.29-34.19,1.22-4.09-3.81-6.54-8.73-7.35-13.88-1-7.52,1.5-15.4,7.44-20.93Z"/>
      <path class="cls-1" d="M114.3,91.82c-.06-.37-.12-.74-.2-1.1.07.37.15.73.2,1.1Z"/>
      <path class="cls-1" d="M72.8,79.37l-15.15,16.27-.03-.04,33.05-35.5,17.44,18.73c3.09,3.31,5.03,7.29,5.91,11.44-1.06-4.5-3.4-8.75-7.02-12.12-9.74-9.07-25.12-8.52-34.19,1.22Z"/>
      <path class="cls-1" d="M106.89,113.02c-9.74,9.07-25.12,8.52-34.19-1.22l-15.05-16.16,15.15-16.27c9.07-9.74,24.45-10.29,34.19-1.22,3.62,3.37,5.97,7.62,7.02,12.12.03.15.06.3.09.45.08.36.14.73.2,1.1,1.09,7.6-1.4,15.6-7.42,21.2Z"/>
      <polygon class="cls-1" points="24.57 60.11 57.62 24.61 90.67 60.11 57.62 95.61 24.57 60.11"/>
    </g>
  </g>
</svg>