<svg width="24" height="24" viewBox="0 0 24 24" fill="none" xmlns="http://www.w3.org/2000/svg">
  <path
    d="M23.4981 13.2411L18.3551 18.5072C18.0318 18.827 17.5988 19.0039 17.1493 18.9999C16.6998 18.9959 16.2698 18.8113 15.952 18.4859C15.6341 18.1604 15.4538 17.7201 15.4499 17.2599C15.446 16.7996 15.6188 16.3562 15.9311 16.0251L18.1477 13.7554H1.71431C1.25965 13.7554 0.823606 13.5704 0.502111 13.2412C0.180615 12.912 0 12.4656 0 12C0 11.5344 0.180615 11.088 0.502111 10.7588C0.823606 10.4296 1.25965 10.2446 1.71431 10.2446H18.1477L15.9311 7.97488C15.6188 7.64381 15.446 7.2004 15.4499 6.74014C15.4538 6.27988 15.6341 5.83961 15.952 5.51414C16.2698 5.18868 16.6998 5.00407 17.1493 5.00007C17.5988 4.99607 18.0318 5.173 18.3551 5.49276L23.4981 10.7589C23.8195 11.0881 24 11.5345 24 12C24 12.4655 23.8195 12.9119 23.4981 13.2411Z"
    fill="#1C1B1E" />
</svg>