<svg id="whole-hand" xmlns="http://www.w3.org/2000/svg" width="50" height="100" viewBox="0 0 50 100">
  <path id="hand" class="cls-1"
    d="M42.0822,12.8307a1.4947,1.4947,0,0,0-2.1064-.1711,1.5526,1.5526,0,0,0-.2438,2.1431l-1.2715-1.5363a2.0085,2.0085,0,0,0-3.0757,2.5809l-1.22-1.5184a1.9914,1.9914,0,0,0-2.8011-.192,1.9651,1.9651,0,0,0-.2739,2.7722L26.165,11.04a1.7629,1.7629,0,1,0-2.7006,2.2661L33.322,25.0544,28.4355,23.11a1.465,1.465,0,0,0-1.9229.8588l-.2245.6a1.5989,1.5989,0,0,0,.84,2.015A66.9971,66.9971,0,0,0,33.7,29.153c1.0112.2959,1.6756,1.0262,3.689,1.4094a9.6,9.6,0,0,0,3.28.1406,2.9056,2.9056,0,0,0,1.3243-.5716l1.56-1.3094,2.9318-2.46a3.4351,3.4351,0,0,0,.8581-1.1847,7.4061,7.4061,0,0,0,.6048-3.7795,9.3956,9.3956,0,0,0-2.0419-4.0092l-3.4428-4.103Z">
  </path>
</svg>