<svg id="whole-mouse" xmlns="http://www.w3.org/2000/svg" width="16.8228" height="44.5674"
  viewBox="-1.2 0 18.8228 44.5674">
  <path id="mouse" class="cls-2"
    d="M25,4.1341a7.2856,7.2856,0,0,1,7.2773,7.2773V20.88a7.2773,7.2773,0,0,1-14.5546,0V11.4114A7.2856,7.2856,0,0,1,25,4.1341M25,3h0a8.4114,8.4114,0,0,0-8.4114,8.4114V20.88A8.4114,8.4114,0,0,0,25,29.2909h0A8.4114,8.4114,0,0,0,33.4114,20.88V11.4114A8.4114,8.4114,0,0,0,25,3Z"
    transform="translate(-16.5886 -3)"></path>
  <g id="wheel">
    <rect class="cls-2" x="7.2773" y="5.8682" width="2.2682" height="5.6706" rx="1.1341"></rect>
  </g>
  <path id="arrow-1" class="cls-2"
    d="M25,36.1787a.5689.5689,0,0,1-.4-.165l-2.8887-2.8721a.5673.5673,0,0,1,.8-.8047L25,34.8115l2.4883-2.4775a.5676.5676,0,0,1,.8008.8047L25.4,36.0137A.5681.5681,0,0,1,25,36.1787Z"
    transform="translate(-16.5886 -3)"></path>
  <path id="arrow-2" class="cls-2"
    d="M25,41.873a.5685.5685,0,0,1-.4-.165l-2.8887-2.8721a.5672.5672,0,0,1,.8-.8046L25,40.5059l2.4883-2.4776a.5676.5676,0,0,1,.8008.8047L25.4,41.708A.5676.5676,0,0,1,25,41.873Z"
    transform="translate(-16.5886 -3)"></path>
  <path id="arrow-3" class="cls-2"
    d="M25,47.5674a.5686.5686,0,0,1-.4-.1651L21.7114,44.53a.5673.5673,0,0,1,.8-.8047L25,46.2l2.4883-2.4775a.5676.5676,0,1,1,.8008.8046L25.4,47.4023A.5677.5677,0,0,1,25,47.5674Z"
    transform="translate(-16.5886 -3)"></path>
</svg>